<?xml version="1.0" encoding="UTF-8"?>
<svg version="1.1" xmlns="http://www.w3.org/2000/svg" width="32" height="32">
<path d="M0 0 C0.804375 -0.00128906 1.60875 -0.00257812 2.4375 -0.00390625 C3.283125 -0.00003906 4.12875 0.00382812 5 0.0078125 C6.2684375 0.00201172 6.2684375 0.00201172 7.5625 -0.00390625 C8.366875 -0.00261719 9.17125 -0.00132813 10 0 C10.7425 0.00112793 11.485 0.00225586 12.25 0.00341797 C14 0.1328125 14 0.1328125 15 1.1328125 C15.07325168 3.99548817 15.09238205 6.8335315 15.0625 9.6953125 C15.05798828 10.50162109 15.05347656 11.30792969 15.04882812 12.13867188 C15.03700518 14.13675006 15.01906914 16.13479033 15 18.1328125 C13.35 18.4628125 11.7 18.7928125 10 19.1328125 C10.60958458 23.82826393 10.60958458 23.82826393 11.625 28.4453125 C12 30.1328125 12 30.1328125 11 32.1328125 C6.52084672 32.16167588 2.04171709 32.17956437 -2.4375 32.1953125 C-3.71689453 32.20369141 -4.99628906 32.21207031 -6.31445312 32.22070312 C-7.52939453 32.22392578 -8.74433594 32.22714844 -9.99609375 32.23046875 C-11.12200928 32.23570557 -12.2479248 32.24094238 -13.40795898 32.24633789 C-16 32.1328125 -16 32.1328125 -17 31.1328125 C-17.02870656 29.72656374 -16.98706485 28.31870847 -16.9140625 26.9140625 C-16.87023437 26.06457031 -16.82640625 25.21507813 -16.78125 24.33984375 C-16.70390625 22.99986328 -16.70390625 22.99986328 -16.625 21.6328125 C-16.58117187 20.73949219 -16.53734375 19.84617187 -16.4921875 18.92578125 C-16.12809741 12.26090991 -16.12809741 12.26090991 -15 11.1328125 C-13.31391034 11.06075739 -11.62499341 11.04895182 -9.9375 11.0703125 C-9.01839844 11.07933594 -8.09929688 11.08835937 -7.15234375 11.09765625 C-6.44207031 11.10925781 -5.73179688 11.12085938 -5 11.1328125 C-5.01160156 10.42253906 -5.02320313 9.71226563 -5.03515625 8.98046875 C-5.04869141 7.60181641 -5.04869141 7.60181641 -5.0625 6.1953125 C-5.07410156 5.27878906 -5.08570313 4.36226563 -5.09765625 3.41796875 C-4.93259038 -0.44457262 -3.44017243 0.00522596 0 0 Z M1 2.1328125 C2 4.1328125 2 4.1328125 2 4.1328125 Z M4 2.1328125 C4 2.7928125 4 3.4528125 4 4.1328125 C5.32 3.8028125 6.64 3.4728125 8 3.1328125 C6.68 2.8028125 5.36 2.4728125 4 2.1328125 Z M12 2.1328125 C13 4.1328125 13 4.1328125 13 4.1328125 Z M-3 6.1328125 C-3 7.1228125 -3 8.1128125 -3 9.1328125 C-2.43152344 9.04902344 -1.86304688 8.96523437 -1.27734375 8.87890625 C3.76635545 8.21371053 8.00294069 8.1759288 13 9.1328125 C13 8.1428125 13 7.1528125 13 6.1328125 C7.72 6.1328125 2.44 6.1328125 -3 6.1328125 Z M4 9.1328125 C3.34 9.7928125 2.68 10.4528125 2 11.1328125 C3.65 11.1328125 5.3 11.1328125 7 11.1328125 C6.67 10.4728125 6.34 9.8128125 6 9.1328125 C5.34 9.1328125 4.68 9.1328125 4 9.1328125 Z M-3 11.1328125 C-3 13.1128125 -3 15.0928125 -3 17.1328125 C2.28 17.1328125 7.56 17.1328125 13 17.1328125 C13 15.8128125 13 14.4928125 13 13.1328125 C12.01 12.8028125 11.02 12.4728125 10 12.1328125 C10 13.4528125 10 14.7728125 10 16.1328125 C6.7 16.1328125 3.4 16.1328125 0 16.1328125 C-0.33 14.4828125 -0.66 12.8328125 -1 11.1328125 C-1.66 11.1328125 -2.32 11.1328125 -3 11.1328125 Z M-14 13.1328125 C-14 17.4228125 -14 21.7128125 -14 26.1328125 C-13.67 26.1328125 -13.34 26.1328125 -13 26.1328125 C-13 21.8428125 -13 17.5528125 -13 13.1328125 C-13.33 13.1328125 -13.66 13.1328125 -14 13.1328125 Z M2 13.1328125 C2 13.4628125 2 13.7928125 2 14.1328125 C3.98 14.1328125 5.96 14.1328125 8 14.1328125 C8 13.8028125 8 13.4728125 8 13.1328125 C6.02 13.1328125 4.04 13.1328125 2 13.1328125 Z M-12 15.1328125 C-12 18.1028125 -12 21.0728125 -12 24.1328125 C-6.06 24.1328125 -0.12 24.1328125 6 24.1328125 C6 22.4828125 6 20.8328125 6 19.1328125 C2.7 18.8028125 -0.6 18.4728125 -4 18.1328125 C-4.33 17.1428125 -4.66 16.1528125 -5 15.1328125 C-7.31 15.1328125 -9.62 15.1328125 -12 15.1328125 Z M8 19.1328125 C8 21.4428125 8 23.7528125 8 26.1328125 C8.33 26.1328125 8.66 26.1328125 9 26.1328125 C9 23.8228125 9 21.5128125 9 19.1328125 C8.67 19.1328125 8.34 19.1328125 8 19.1328125 Z M-15 28.1328125 C-15 28.7928125 -15 29.4528125 -15 30.1328125 C-12.36 30.1328125 -9.72 30.1328125 -7 30.1328125 C-7 29.4728125 -7 28.8128125 -7 28.1328125 C-9.64 28.1328125 -12.28 28.1328125 -15 28.1328125 Z M2 28.1328125 C1.67 28.7928125 1.34 29.4528125 1 30.1328125 C1.99 30.1328125 2.98 30.1328125 4 30.1328125 C4 29.4728125 4 28.8128125 4 28.1328125 C3.34 28.1328125 2.68 28.1328125 2 28.1328125 Z M8 28.1328125 C8 28.7928125 8 29.4528125 8 30.1328125 C8.66 30.1328125 9.32 30.1328125 10 30.1328125 C10 29.4728125 10 28.8128125 10 28.1328125 C9.34 28.1328125 8.68 28.1328125 8 28.1328125 Z " fill="#845DF7" transform="translate(17,-0.1328125)"/>
<path d="M0 0 C0.804375 -0.00128906 1.60875 -0.00257812 2.4375 -0.00390625 C3.283125 -0.00003906 4.12875 0.00382812 5 0.0078125 C6.2684375 0.00201172 6.2684375 0.00201172 7.5625 -0.00390625 C8.366875 -0.00261719 9.17125 -0.00132813 10 0 C10.7425 0.00112793 11.485 0.00225586 12.25 0.00341797 C14 0.1328125 14 0.1328125 15 1.1328125 C15.07325168 3.99548817 15.09238205 6.8335315 15.0625 9.6953125 C15.05798828 10.50162109 15.05347656 11.30792969 15.04882812 12.13867188 C15.03700518 14.13675006 15.01906914 16.13479033 15 18.1328125 C13.35 18.4628125 11.7 18.7928125 10 19.1328125 C10 21.1128125 10 23.0928125 10 25.1328125 C9.67 25.1328125 9.34 25.1328125 9 25.1328125 C8.67 23.4828125 8.34 21.8328125 8 20.1328125 C5.03 19.8028125 2.06 19.4728125 -1 19.1328125 C-1 18.4728125 -1 17.8128125 -1 17.1328125 C3.62 17.1328125 8.24 17.1328125 13 17.1328125 C13 15.8128125 13 14.4928125 13 13.1328125 C12.34 13.1328125 11.68 13.1328125 11 13.1328125 C10.67 14.1228125 10.34 15.1128125 10 16.1328125 C6.7 16.1328125 3.4 16.1328125 0 16.1328125 C-0.66 14.1528125 -1.32 12.1728125 -2 10.1328125 C0.66248083 7.47033167 2.26783345 7.41448545 6 7.1328125 C9.875 8.0703125 9.875 8.0703125 13 9.1328125 C13 8.1428125 13 7.1528125 13 6.1328125 C7.06 6.4628125 1.12 6.7928125 -5 7.1328125 C-5 0.00759549 -5 0.00759549 0 0 Z M1 2.1328125 C2 4.1328125 2 4.1328125 2 4.1328125 Z M4 2.1328125 C4 2.7928125 4 3.4528125 4 4.1328125 C5.32 3.8028125 6.64 3.4728125 8 3.1328125 C6.68 2.8028125 5.36 2.4728125 4 2.1328125 Z M12 2.1328125 C13 4.1328125 13 4.1328125 13 4.1328125 Z M4 9.1328125 C3.34 9.7928125 2.68 10.4528125 2 11.1328125 C3.65 11.1328125 5.3 11.1328125 7 11.1328125 C6.67 10.4728125 6.34 9.8128125 6 9.1328125 C5.34 9.1328125 4.68 9.1328125 4 9.1328125 Z M2 13.1328125 C2 13.4628125 2 13.7928125 2 14.1328125 C3.98 14.1328125 5.96 14.1328125 8 14.1328125 C8 13.8028125 8 13.4728125 8 13.1328125 C6.02 13.1328125 4.04 13.1328125 2 13.1328125 Z " fill="#3BAEF4" transform="translate(17,-0.1328125)"/>
<path d="M0 0 C0 1.65 0 3.3 0 5 C-0.99 5.495 -0.99 5.495 -2 6 C-2 6.66 -2 7.32 -2 8 C-3.98 8 -5.96 8 -8 8 C-8.66 6.02 -9.32 4.04 -10 2 C-6.80505194 -1.19494806 -4.22040044 -1.35655728 0 0 Z M-4 1 C-4.66 1.66 -5.32 2.32 -6 3 C-4.35 3 -2.7 3 -1 3 C-1.33 2.34 -1.66 1.68 -2 1 C-2.66 1 -3.32 1 -4 1 Z " fill="#578FF5" transform="translate(25,8)"/>
<path d="M0 0 C1.2065625 0.0309375 1.2065625 0.0309375 2.4375 0.0625 C2.7675 0.7225 3.0975 1.3825 3.4375 2.0625 C4.0975 2.0625 4.7575 2.0625 5.4375 2.0625 C5.7675 3.3825 6.0975 4.7025 6.4375 6.0625 C3.1375 6.3925 -0.1625 6.7225 -3.5625 7.0625 C-3.60504356 5.06295254 -3.60330783 3.06208364 -3.5625 1.0625 C-2.5625 0.0625 -2.5625 0.0625 0 0 Z " fill="#4E99F5" transform="translate(15.5625,-0.0625)"/>
<path d="M0 0 C3.63 0 7.26 0 11 0 C11.33 1.98 11.66 3.96 12 6 C9.36 6 6.72 6 4 6 C4 5.34 4 4.68 4 4 C4.66 3.67 5.32 3.34 6 3 C3.03 2.505 3.03 2.505 0 2 C0 1.34 0 0.68 0 0 Z " fill="#35B1F3" transform="translate(18,0)"/>
<path d="M0 0 C5.28 0 10.56 0 16 0 C15.67 0.66 15.34 1.32 15 2 C13.68 2 12.36 2 11 2 C11 3.98 11 5.96 11 8 C10.67 8 10.34 8 10 8 C9.67 6.35 9.34 4.7 9 3 C6.03 2.67 3.06 2.34 0 2 C0 1.34 0 0.68 0 0 Z " fill="#5E85F5" transform="translate(16,17)"/>
<path d="M0 0 C0.33 0.99 0.66 1.98 1 3 C3.31 3 5.62 3 8 3 C8 3.66 8 4.32 8 5 C5.36 5 2.72 5 0 5 C-0.5625 3.0625 -0.5625 3.0625 -1 1 C-0.67 0.67 -0.34 0.34 0 0 Z " fill="#AD30F9" transform="translate(1,27)"/>
</svg>
